<svg width="159" height="76" viewBox="0 0 159 76" fill="none" xmlns="http://www.w3.org/2000/svg">
<path d="M32.247 31.6987L34.5498 39.1238L39.4999 31.6987H43.5676L40.8343 47.1946H36.9388L38.4884 38.4566L35.174 43.665H32.3546L30.8911 38.4566L29.3415 47.1946H25.4675L28.2008 31.6987H32.247ZM48.3121 47.4959C45.3277 47.4959 43.8355 46.4628 43.8355 44.3967C43.8355 44.1097 43.8642 43.8013 43.9216 43.4713L44.3735 40.8025C44.6174 39.4251 45.2488 38.3705 46.2675 37.6388C47.3005 36.8927 48.6636 36.5196 50.3567 36.5196C53.2406 36.5196 54.6826 37.6101 54.6826 39.791C54.6826 40.1066 54.6539 40.451 54.5965 40.824L54.3383 42.3521H47.774L47.6879 42.8471C47.6592 43.0193 47.6449 43.1771 47.6449 43.3206C47.6449 44.1097 48.1112 44.5043 49.0438 44.5043C49.3882 44.5043 49.6823 44.3967 49.9262 44.1815C50.1701 43.9663 50.3136 43.7152 50.3567 43.4282L53.9293 43.4713C53.4559 46.1543 51.5834 47.4959 48.3121 47.4959ZM50.8947 41.0393C50.9521 40.7953 50.9808 40.5729 50.9808 40.3721C50.9808 40.1568 50.8875 39.9416 50.701 39.7264C50.5145 39.5112 50.2132 39.4036 49.7971 39.4036C49.3953 39.4036 49.0223 39.5399 48.6779 39.8125C48.3479 40.0851 48.1184 40.494 47.9892 41.0393H50.8947ZM73.6599 44.4397C73.9899 44.4397 74.2841 44.368 74.5423 44.2245L74.4347 46.6565C73.7604 47.2161 72.9927 47.4959 72.1318 47.4959C70.1805 47.4959 69.2048 46.678 69.2048 45.0424C69.2048 44.7554 69.2335 44.4469 69.2909 44.1169L69.7429 41.4697C69.7859 41.2114 69.8075 40.9532 69.8075 40.6949C69.8075 40.0062 69.4272 39.6618 68.6668 39.6618C67.9207 39.6618 67.3324 39.956 66.902 40.5442L65.7398 47.1946H62.081L63.0926 41.4697C63.1356 41.2114 63.1571 40.9532 63.1571 40.6949C63.1571 40.0062 62.7697 39.6618 61.9949 39.6618C61.378 39.6618 60.8471 39.8986 60.4023 40.3721L59.197 47.1946H55.5383L57.3677 36.8424H60.7682L60.5314 38.1338C61.3923 37.072 62.4828 36.5411 63.8028 36.5411C65.668 36.5411 66.7298 37.1581 66.9881 38.392C67.8489 37.1581 68.9968 36.5411 70.4316 36.5411C71.8808 36.5411 72.8206 36.864 73.251 37.5096C73.538 37.9544 73.6814 38.4423 73.6814 38.9731C73.6814 39.504 73.6456 39.9847 73.5738 40.4151L73.0358 43.6219C73.0214 43.708 73.0143 43.7869 73.0143 43.8587C73.0143 44.246 73.2295 44.4397 73.6599 44.4397ZM82.2415 36.5411C83.7911 36.5411 84.9605 36.8783 85.7496 37.5527C86.3666 38.0835 86.6751 38.8225 86.6751 39.7694C86.6751 40.0851 86.6392 40.4295 86.5675 40.8025L86.1155 43.3206C85.8429 44.8415 85.2044 45.9176 84.2 46.5489C83.21 47.1802 81.8828 47.4959 80.2184 47.4959C78.5541 47.4959 77.3345 47.1802 76.5597 46.5489C75.9858 46.0754 75.6988 45.3652 75.6988 44.4182C75.6988 44.0882 75.7347 43.7223 75.8064 43.3206L76.2584 40.8025C76.7606 37.9616 78.7549 36.5411 82.2415 36.5411ZM82.8226 41.233C82.8513 41.0895 82.8657 40.9101 82.8657 40.6949C82.8657 40.4653 82.7724 40.2142 82.5859 39.9416C82.3994 39.669 82.0693 39.5327 81.5959 39.5327C81.1367 39.5327 80.7493 39.6905 80.4337 40.0062C80.118 40.3075 79.9171 40.7164 79.831 41.233L79.5513 42.8471C79.5226 42.9906 79.5082 43.1771 79.5082 43.4067C79.5082 43.6219 79.6015 43.8587 79.788 44.1169C79.9745 44.3752 80.2974 44.5043 80.7565 44.5043C81.23 44.5043 81.6246 44.3465 81.9402 44.0308C82.2559 43.7008 82.4567 43.3063 82.5428 42.8471L82.8226 41.233ZM108.406 35.0561H103.111L100.981 47.1946H97.0851L99.2158 35.0561H93.8998L94.5024 31.6987H109.008L108.406 35.0561ZM111.897 36.5411C113.447 36.5411 114.616 36.8783 115.406 37.5527C116.023 38.0835 116.331 38.8225 116.331 39.7694C116.331 40.0851 116.295 40.4295 116.223 40.8025L115.771 43.3206C115.499 44.8415 114.86 45.9176 113.856 46.5489C112.866 47.1802 111.539 47.4959 109.874 47.4959C108.21 47.4959 106.99 47.1802 106.216 46.5489C105.642 46.0754 105.355 45.3652 105.355 44.4182C105.355 44.0882 105.391 43.7223 105.462 43.3206L105.914 40.8025C106.417 37.9616 108.411 36.5411 111.897 36.5411ZM112.479 41.233C112.507 41.0895 112.522 40.9101 112.522 40.6949C112.522 40.4653 112.428 40.2142 112.242 39.9416C112.055 39.669 111.725 39.5327 111.252 39.5327C110.793 39.5327 110.405 39.6905 110.09 40.0062C109.774 40.3075 109.573 40.7164 109.487 41.233L109.207 42.8471C109.179 42.9906 109.164 43.1771 109.164 43.4067C109.164 43.6219 109.257 43.8587 109.444 44.1169C109.63 44.3752 109.953 44.5043 110.412 44.5043C110.886 44.5043 111.281 44.3465 111.596 44.0308C111.912 43.7008 112.113 43.3063 112.199 42.8471L112.479 41.233ZM127.984 43.8802C127.984 44.2532 128.171 44.4397 128.544 44.4397C128.931 44.4397 129.254 44.368 129.512 44.2245L129.405 46.6565C128.716 47.2161 127.941 47.4959 127.08 47.4959C125.459 47.4959 124.577 46.8717 124.433 45.6235C123.572 46.8717 122.41 47.4959 120.947 47.4959C119.497 47.4959 118.558 47.1659 118.127 46.5059C117.84 46.0898 117.697 45.6163 117.697 45.0854C117.697 44.5545 117.74 44.0667 117.826 43.6219L119.031 36.8424H122.69L121.678 42.5673C121.635 42.8256 121.614 43.0839 121.614 43.3421C121.614 44.0308 122.001 44.3752 122.776 44.3752C123.422 44.3752 123.938 44.1528 124.326 43.708L125.552 36.8424H129.211L128.006 43.6219C127.991 43.708 127.984 43.7941 127.984 43.8802ZM141.29 39.0377C141.29 39.5255 141.204 39.999 141.032 40.4582C140.874 40.9173 140.716 41.2545 140.558 41.4697L140.321 41.771H137.072C137.43 41.441 137.61 41.0321 137.61 40.5442C137.61 40.286 137.524 40.0779 137.351 39.9201C137.194 39.7479 136.971 39.6618 136.684 39.6618C136.196 39.6618 135.773 39.9058 135.414 40.3936L134.209 47.1946H130.55L132.38 36.8424H135.78L135.522 38.2844C136.34 37.1222 137.33 36.5411 138.492 36.5411C139.425 36.5411 140.121 36.7635 140.58 37.2083C141.053 37.6531 141.29 38.2629 141.29 39.0377ZM152.668 39.0807C152.668 39.5542 152.525 39.9918 152.238 40.3936H148.708C148.823 40.3075 148.88 40.164 148.88 39.9631C148.88 39.7623 148.765 39.6044 148.536 39.4897C148.306 39.3605 148.012 39.296 147.653 39.296C146.577 39.296 146.039 39.626 146.039 40.286C146.039 40.5442 146.24 40.7308 146.642 40.8456C147.044 40.9603 147.532 41.0536 148.105 41.1253C148.679 41.1971 149.253 41.3047 149.827 41.4482C150.401 41.5773 150.889 41.8427 151.291 42.2445C151.692 42.6462 151.893 43.1843 151.893 43.8587C151.893 45.0495 151.413 45.9535 150.451 46.5704C149.504 47.1874 148.12 47.4959 146.298 47.4959C144.475 47.4959 143.198 47.2018 142.467 46.6135C141.893 46.1543 141.606 45.523 141.606 44.7195C141.606 44.49 141.627 44.2532 141.67 44.0093L145.265 43.9663C145.236 44.1671 145.351 44.3465 145.609 44.5043C145.881 44.6478 146.276 44.7195 146.793 44.7195C147.309 44.7195 147.682 44.6693 147.912 44.5689C148.141 44.4541 148.256 44.246 148.256 43.9447C148.256 43.7439 148.055 43.6076 147.653 43.5358C147.252 43.4497 146.757 43.378 146.168 43.3206C145.595 43.2632 145.013 43.1699 144.425 43.0408C143.851 42.9117 143.363 42.6391 142.962 42.223C142.56 41.8069 142.359 41.2616 142.359 40.5873C142.359 39.2816 142.861 38.2772 143.866 37.5742C144.884 36.8711 146.348 36.5196 148.256 36.5196C151.197 36.5196 152.668 37.3733 152.668 39.0807Z" fill="black"/>
<path d="M62.6833 66.9384C62.9905 67.3119 62.9308 67.8658 62.5439 68.1558C56.3956 72.7629 48.9726 75.4743 41.2256 75.931C33.1824 76.4053 25.1871 74.4258 18.3451 70.2663C11.5031 66.1069 6.15234 59.9729 3.0326 52.7124C-0.0871303 45.4519 -0.821743 37.4236 0.930328 29.7374C2.6824 22.0511 6.83461 15.0867 12.8129 9.80688C18.7912 4.52706 26.3002 1.19269 34.3019 0.264755C42.3036 -0.663181 50.4026 0.861154 57.4793 4.62701C64.2915 8.25216 69.8324 13.7821 73.3985 20.4988C73.6267 20.9287 73.4446 21.4587 73.0055 21.6688V21.6688C72.5776 21.8736 72.0654 21.6973 71.8429 21.2784C68.437 14.8669 63.1468 9.58826 56.6433 6.12741C49.8847 2.53085 42.1498 1.07505 34.5079 1.96127C26.866 2.84749 19.6945 6.03195 13.985 11.0744C8.27549 16.1168 4.30996 22.7682 2.63666 30.1088C0.963359 37.4495 1.66494 45.1169 4.64442 52.051C7.62389 58.985 12.7341 64.8433 19.2685 68.8157C25.8029 72.7882 33.4387 74.6786 41.1203 74.2257C48.5188 73.7895 55.6077 71.2002 61.4794 66.8006C61.8543 66.5197 62.3858 66.5766 62.6833 66.9384V66.9384Z" fill="black"/>
</svg>
