<svg width="229" height="76" viewBox="0 0 229 76" fill="none" xmlns="http://www.w3.org/2000/svg">
<path d="M83.3915 31.6987L85.6944 39.1238L90.6445 31.6987H94.7121L91.9788 47.1946H88.0833L89.6329 38.4566L86.3185 43.665H83.4991L82.0356 38.4566L80.486 47.1946H76.612L79.3454 31.6987H83.3915ZM99.4566 47.4959C96.4722 47.4959 94.98 46.4628 94.98 44.3967C94.98 44.1097 95.0087 43.8013 95.0661 43.4713L95.5181 40.8025C95.762 39.4251 96.3933 38.3705 97.412 37.6388C98.4451 36.8927 99.8081 36.5196 101.501 36.5196C104.385 36.5196 105.827 37.6101 105.827 39.791C105.827 40.1066 105.798 40.451 105.741 40.824L105.483 42.3521H98.9185L98.8325 42.8471C98.8038 43.0193 98.7894 43.1771 98.7894 43.3206C98.7894 44.1097 99.2557 44.5043 100.188 44.5043C100.533 44.5043 100.827 44.3967 101.071 44.1815C101.315 43.9663 101.458 43.7152 101.501 43.4282L105.074 43.4713C104.6 46.1543 102.728 47.4959 99.4566 47.4959ZM102.039 41.0393C102.097 40.7953 102.125 40.5729 102.125 40.3721C102.125 40.1568 102.032 39.9416 101.846 39.7264C101.659 39.5112 101.358 39.4036 100.942 39.4036C100.54 39.4036 100.167 39.5399 99.8225 39.8125C99.4925 40.0851 99.2629 40.494 99.1338 41.0393H102.039ZM124.804 44.4397C125.134 44.4397 125.429 44.368 125.687 44.2245L125.579 46.6565C124.905 47.2161 124.137 47.4959 123.276 47.4959C121.325 47.4959 120.349 46.678 120.349 45.0424C120.349 44.7554 120.378 44.4469 120.435 44.1169L120.887 41.4697C120.93 41.2114 120.952 40.9532 120.952 40.6949C120.952 40.0062 120.572 39.6618 119.811 39.6618C119.065 39.6618 118.477 39.956 118.047 40.5442L116.884 47.1946H113.226L114.237 41.4697C114.28 41.2114 114.302 40.9532 114.302 40.6949C114.302 40.0062 113.914 39.6618 113.139 39.6618C112.522 39.6618 111.992 39.8986 111.547 40.3721L110.342 47.1946H106.683L108.512 36.8424H111.913L111.676 38.1338C112.537 37.072 113.627 36.5411 114.947 36.5411C116.813 36.5411 117.874 37.1581 118.133 38.392C118.993 37.1581 120.141 36.5411 121.576 36.5411C123.025 36.5411 123.965 36.864 124.396 37.5096C124.682 37.9544 124.826 38.4423 124.826 38.9731C124.826 39.504 124.79 39.9847 124.718 40.4151L124.18 43.6219C124.166 43.708 124.159 43.7869 124.159 43.8587C124.159 44.246 124.374 44.4397 124.804 44.4397ZM133.386 36.5411C134.936 36.5411 136.105 36.8783 136.894 37.5527C137.511 38.0835 137.82 38.8225 137.82 39.7694C137.82 40.0851 137.784 40.4295 137.712 40.8025L137.26 43.3206C136.987 44.8415 136.349 45.9176 135.345 46.5489C134.355 47.1802 133.027 47.4959 131.363 47.4959C129.699 47.4959 128.479 47.1802 127.704 46.5489C127.13 46.0754 126.843 45.3652 126.843 44.4182C126.843 44.0882 126.879 43.7223 126.951 43.3206L127.403 40.8025C127.905 37.9616 129.899 36.5411 133.386 36.5411ZM133.967 41.233C133.996 41.0895 134.01 40.9101 134.01 40.6949C134.01 40.4653 133.917 40.2142 133.73 39.9416C133.544 39.669 133.214 39.5327 132.74 39.5327C132.281 39.5327 131.894 39.6905 131.578 40.0062C131.263 40.3075 131.062 40.7164 130.976 41.233L130.696 42.8471C130.667 42.9906 130.653 43.1771 130.653 43.4067C130.653 43.6219 130.746 43.8587 130.933 44.1169C131.119 44.3752 131.442 44.5043 131.901 44.5043C132.375 44.5043 132.769 44.3465 133.085 44.0308C133.4 43.7008 133.601 43.3063 133.687 42.8471L133.967 41.233ZM159.55 35.0561H154.256L152.125 47.1946H148.23L150.36 35.0561H145.044L145.647 31.6987H160.153L159.55 35.0561ZM163.042 36.5411C164.592 36.5411 165.761 36.8783 166.55 37.5527C167.167 38.0835 167.476 38.8225 167.476 39.7694C167.476 40.0851 167.44 40.4295 167.368 40.8025L166.916 43.3206C166.643 44.8415 166.005 45.9176 165.001 46.5489C164.011 47.1802 162.683 47.4959 161.019 47.4959C159.355 47.4959 158.135 47.1802 157.36 46.5489C156.786 46.0754 156.499 45.3652 156.499 44.4182C156.499 44.0882 156.535 43.7223 156.607 43.3206L157.059 40.8025C157.561 37.9616 159.555 36.5411 163.042 36.5411ZM163.623 41.233C163.652 41.0895 163.666 40.9101 163.666 40.6949C163.666 40.4653 163.573 40.2142 163.386 39.9416C163.2 39.669 162.87 39.5327 162.396 39.5327C161.937 39.5327 161.55 39.6905 161.234 40.0062C160.919 40.3075 160.718 40.7164 160.632 41.233L160.352 42.8471C160.323 42.9906 160.309 43.1771 160.309 43.4067C160.309 43.6219 160.402 43.8587 160.589 44.1169C160.775 44.3752 161.098 44.5043 161.557 44.5043C162.03 44.5043 162.425 44.3465 162.741 44.0308C163.056 43.7008 163.257 43.3063 163.343 42.8471L163.623 41.233ZM179.129 43.8802C179.129 44.2532 179.315 44.4397 179.688 44.4397C180.076 44.4397 180.399 44.368 180.657 44.2245L180.549 46.6565C179.861 47.2161 179.086 47.4959 178.225 47.4959C176.604 47.4959 175.721 46.8717 175.578 45.6235C174.717 46.8717 173.555 47.4959 172.091 47.4959C170.642 47.4959 169.702 47.1659 169.272 46.5059C168.985 46.0898 168.841 45.6163 168.841 45.0854C168.841 44.5545 168.884 44.0667 168.97 43.6219L170.176 36.8424H173.834L172.823 42.5673C172.78 42.8256 172.758 43.0839 172.758 43.3421C172.758 44.0308 173.146 44.3752 173.92 44.3752C174.566 44.3752 175.083 44.1528 175.47 43.708L176.697 36.8424H180.356L179.15 43.6219C179.136 43.708 179.129 43.7941 179.129 43.8802ZM192.435 39.0377C192.435 39.5255 192.348 39.999 192.176 40.4582C192.018 40.9173 191.861 41.2545 191.703 41.4697L191.466 41.771H188.216C188.575 41.441 188.754 41.0321 188.754 40.5442C188.754 40.286 188.668 40.0779 188.496 39.9201C188.338 39.7479 188.116 39.6618 187.829 39.6618C187.341 39.6618 186.918 39.9058 186.559 40.3936L185.354 47.1946H181.695L183.524 36.8424H186.925L186.667 38.2844C187.484 37.1222 188.474 36.5411 189.637 36.5411C190.569 36.5411 191.265 36.7635 191.724 37.2083C192.198 37.6531 192.435 38.2629 192.435 39.0377ZM203.813 39.0807C203.813 39.5542 203.669 39.9918 203.382 40.3936H199.853C199.967 40.3075 200.025 40.164 200.025 39.9631C200.025 39.7623 199.91 39.6044 199.68 39.4897C199.451 39.3605 199.157 39.296 198.798 39.296C197.722 39.296 197.184 39.626 197.184 40.286C197.184 40.5442 197.385 40.7308 197.786 40.8456C198.188 40.9603 198.676 41.0536 199.25 41.1253C199.824 41.1971 200.398 41.3047 200.972 41.4482C201.546 41.5773 202.033 41.8427 202.435 42.2445C202.837 42.6462 203.038 43.1843 203.038 43.8587C203.038 45.0495 202.557 45.9535 201.596 46.5704C200.649 47.1874 199.264 47.4959 197.442 47.4959C195.62 47.4959 194.343 47.2018 193.611 46.6135C193.037 46.1543 192.75 45.523 192.75 44.7195C192.75 44.49 192.772 44.2532 192.815 44.0093L196.409 43.9663C196.38 44.1671 196.495 44.3465 196.753 44.5043C197.026 44.6478 197.421 44.7195 197.937 44.7195C198.454 44.7195 198.827 44.6693 199.056 44.5689C199.286 44.4541 199.401 44.246 199.401 43.9447C199.401 43.7439 199.2 43.6076 198.798 43.5358C198.396 43.4497 197.901 43.378 197.313 43.3206C196.739 43.2632 196.158 43.1699 195.57 43.0408C194.996 42.9117 194.508 42.6391 194.106 42.223C193.704 41.8069 193.504 41.2616 193.504 40.5873C193.504 39.2816 194.006 38.2772 195.01 37.5742C196.029 36.8711 197.492 36.5196 199.401 36.5196C202.342 36.5196 203.813 37.3733 203.813 39.0807Z" fill="#F25C05"/>
<path d="M113.828 66.9384C114.135 67.3119 114.075 67.8658 113.688 68.1558C107.54 72.7629 100.117 75.4743 92.3701 75.931C84.3269 76.4053 76.3316 74.4258 69.4896 70.2663C62.6476 66.1069 57.2969 59.9729 54.1771 52.7124C51.0574 45.4519 50.3228 37.4236 52.0749 29.7374C53.8269 22.0511 57.9791 15.0867 63.9574 9.80688C69.9357 4.52706 77.4448 1.19269 85.4464 0.264755C93.4481 -0.663181 101.547 0.861154 108.624 4.62701C115.436 8.25216 120.977 13.7821 124.543 20.4988C124.771 20.9287 124.589 21.4587 124.15 21.6688C123.722 21.8736 123.21 21.6973 122.987 21.2784C119.582 14.8669 114.291 9.58826 107.788 6.12741C101.029 2.53085 93.2944 1.07505 85.6524 1.96127C78.0105 2.84749 70.839 6.03195 65.1295 11.0744C59.42 16.1168 55.4545 22.7682 53.7812 30.1088C52.1079 37.4495 52.8095 45.1169 55.789 52.051C58.7684 58.985 63.8786 64.8433 70.413 68.8157C76.9474 72.7882 84.5832 74.6786 92.2648 74.2257C99.6633 73.7895 106.752 71.2002 112.624 66.8006C112.999 66.5197 113.53 66.5766 113.828 66.9384Z" fill="#F25C05"/>
<line x1="70.5723" y1="59.7144" x2="228.572" y2="59.7144" stroke="#F25C05" stroke-width="1.71429"/>
<line y1="59.7144" x2="49.7176" y2="59.7144" stroke="#F25C05" stroke-width="1.71429"/>
</svg>
