<svg width="25" height="24" viewBox="0 0 25 24" fill="none" xmlns="http://www.w3.org/2000/svg">
<path d="M16.7888 15.5943H17.6663L24.0187 21.9551L22.6793 23.2935L16.3138 16.9452V16.0686V15.8667L16.1736 15.7214L15.8029 15.3372L15.4752 14.9976L15.1172 15.3051C13.6389 16.5751 11.7212 17.3388 9.63457 17.3388C4.98071 17.3388 1.20898 13.5692 1.20898 8.91938C1.20898 4.26961 4.98071 0.5 9.63457 0.5C14.2884 0.5 18.0601 4.26961 18.0601 8.91938C18.0601 11.0043 17.296 12.9205 16.0252 14.3978L15.7171 14.756L16.0573 15.0839L16.4418 15.4544L16.5871 15.5943H16.7888ZM2.95532 8.91938C2.95532 12.6127 5.93957 15.5943 9.63457 15.5943C13.3296 15.5943 16.3138 12.6127 16.3138 8.91938C16.3138 5.2261 13.3296 2.24443 9.63457 2.24443C5.93957 2.24443 2.95532 5.2261 2.95532 8.91938Z" fill="black" stroke="black"/>
</svg>
